<?xml version="1.0" encoding="UTF-8"?>
<!DOCTYPE svg PUBLIC "-//W3C//DTD SVG 1.1//EN" "http://www.w3.org/Graphics/SVG/1.1/DTD/svg11.dtd">
<svg xmlns="http://www.w3.org/2000/svg" version="1.1" width="2560px" height="915px" style="shape-rendering:geometricPrecision; text-rendering:geometricPrecision; image-rendering:optimizeQuality; fill-rule:evenodd; clip-rule:evenodd" xmlns:xlink="http://www.w3.org/1999/xlink">
<g><path style="opacity:1" fill="#5c9ce1" d="M 1655.5,210.5 C 1666.51,210.333 1677.51,210.5 1688.5,211C 1689,211.5 1689.5,212 1690,212.5C 1690.83,345.07 1690.67,477.57 1689.5,610C 1677.59,610.821 1665.76,610.654 1654,609.5C 1653.33,477.167 1653.33,344.833 1654,212.5C 1654.72,211.956 1655.22,211.289 1655.5,210.5 Z"/></g>
<g><path style="opacity:1" fill="#5a9be1" d="M 1614.5,242.5 C 1559.5,242.5 1504.5,242.5 1449.5,242.5C 1449.17,292.336 1449.5,342.003 1450.5,391.5C 1499.74,391.831 1548.91,391.497 1598,390.5C 1598.67,391.167 1599.33,391.833 1600,392.5C 1600.82,401.745 1600.65,410.911 1599.5,420C 1549.83,420.5 1500.17,420.667 1450.5,420.5C 1450.67,483.501 1450.5,546.501 1450,609.5C 1438,610.833 1426,610.833 1414,609.5C 1413.33,477.833 1413.33,346.167 1414,214.5C 1414.69,213.643 1415.52,212.977 1416.5,212.5C 1463.68,213.249 1510.85,213.583 1558,213.5C 1575.83,213.333 1593.67,213.167 1611.5,213C 1612,212.5 1612.5,212 1613,211.5C 1614.9,212.68 1616.4,214.18 1617.5,216C 1615.92,219.758 1615.26,223.758 1615.5,228C 1615.26,232.242 1615.92,236.242 1617.5,240C 1617.25,241.749 1616.25,242.582 1614.5,242.5 Z"/></g>
<g><path style="opacity:1" fill="#5c9ce1" d="M 474.5,501.5 C 472.824,502.183 472.157,503.517 472.5,505.5C 444.562,561.024 400.729,595.357 341,608.5C 271.787,617.089 214.454,594.755 169,541.5C 148.343,513.358 135.509,482.524 130.5,449C 130.77,447.486 131.103,445.986 131.5,444.5C 130.033,441.734 129.2,438.734 129,435.5C 128.333,421.5 128.333,407.5 129,393.5C 132.8,353.202 146.8,317.202 171,285.5C 222.424,226.64 286.258,206.64 362.5,225.5C 434.767,251.995 477.267,303.662 490,380.5C 490.333,390.167 490.667,399.833 491,409.5C 493,411.833 493,414.167 491,416.5C 491.884,446.536 486.384,474.869 474.5,501.5 Z M 437.5,319.5 C 437.932,320.71 438.599,321.71 439.5,322.5C 443.168,329.177 446.335,336.177 449,343.5C 450.976,344.543 451.476,345.877 450.5,347.5C 452.721,350.791 453.887,354.457 454,358.5C 454.645,359.646 455.478,360.646 456.5,361.5C 455.23,364.763 455.73,367.763 458,370.5C 458.248,375.563 458.915,380.563 460,385.5C 461.383,402.536 461.883,419.536 461.5,436.5C 457.403,465.942 447.237,493.275 431,518.5C 418.861,534.166 405.028,547.166 389.5,557.5C 388.29,557.932 387.29,558.599 386.5,559.5C 385.29,559.932 384.29,560.599 383.5,561.5C 357.981,574.63 330.981,581.297 302.5,581.5C 295.425,579.238 288.091,578.071 280.5,578C 228.791,564.712 192.291,532.546 171,481.5C 152.547,429.997 154.714,379.33 177.5,329.5C 178.401,328.71 179.068,327.71 179.5,326.5C 180.492,324.544 181.492,322.544 182.5,320.5C 183.401,319.71 184.068,318.71 184.5,317.5C 214.508,272.115 256.674,248.782 311,247.5C 366.228,249.756 408.394,273.756 437.5,319.5 Z"/></g>
<g><path style="opacity:1" fill="#5a9be1" d="M 1758.5,221.5 C 1785.04,220.139 1802.21,232.472 1810,258.5C 1813.89,279.852 1807.39,297.019 1790.5,310C 1774.5,320 1758.5,320 1742.5,310C 1732.85,302.78 1726.68,293.614 1724,282.5C 1723.33,273.833 1723.33,265.167 1724,256.5C 1726.3,255.256 1726.8,253.589 1725.5,251.5C 1732.23,236.422 1743.23,226.422 1758.5,221.5 Z"/></g>
<g><path style="opacity:1" fill="#5d9ce1" d="M 821.5,223.5 C 831.172,223.334 840.839,223.5 850.5,224C 852.657,225.085 852.824,226.251 851,227.5C 850.333,281.167 850.333,334.833 851,388.5C 878.546,357.98 912.879,345.646 954,351.5C 985.53,351.954 1010.86,365.621 1030,392.5C 1038.5,408.377 1042.84,425.377 1043,443.5C 1043.06,499.545 1043.06,555.545 1043,611.5C 1042.5,612 1042,612.5 1041.5,613C 1032.17,613.667 1022.83,613.667 1013.5,613C 1012.58,612.626 1011.75,612.126 1011,611.5C 1010.53,563.234 1010.7,515.067 1011.5,467C 1013.2,401.709 981.536,373.043 916.5,381C 880.181,388.66 858.348,411.16 851,448.5C 850.333,501.833 850.333,555.167 851,608.5C 851.5,609 852,609.5 852.5,610C 851.449,611.385 850.116,612.385 848.5,613C 839.833,613.667 831.167,613.667 822.5,613C 822,612.5 821.5,612 821,611.5C 820.684,481.75 820.85,352.417 821.5,223.5 Z"/></g>
<g><path style="opacity:1" fill="#5b9ce1" d="M 1855.5,235.5 C 1871.52,233.939 1883.69,240.272 1892,254.5C 1901.19,270.033 1900.52,285.033 1890,299.5C 1883.57,305.282 1876.4,309.782 1868.5,313C 1849.22,313.915 1836.55,305.081 1830.5,286.5C 1829.25,278.955 1829.25,271.288 1830.5,263.5C 1834.63,250.374 1842.96,241.041 1855.5,235.5 Z"/></g>
<g><path style="opacity:1" fill="#5c9ce1" d="M 1933.5,265.5 C 1947.05,264.893 1957.55,270.226 1965,281.5C 1971.41,292.835 1972.08,304.502 1967,316.5C 1957.37,330.402 1944.87,333.902 1929.5,327C 1906.67,310.517 1904.67,291.85 1923.5,271C 1926.99,269.245 1930.32,267.412 1933.5,265.5 Z"/></g>
<g><path style="opacity:1" fill="#5b9be1" d="M 793.5,382.5 C 775.5,382.5 757.5,382.5 739.5,382.5C 739.232,384.099 739.566,385.432 740.5,386.5C 740.333,443.168 740.5,499.834 741,556.5C 742.549,561.31 743.549,566.31 744,571.5C 746.909,578.078 751.576,583.078 758,586.5C 758.414,586.043 758.914,585.709 759.5,585.5C 763.419,586.446 767.253,587.446 771,588.5C 775.685,587.183 780.518,586.183 785.5,585.5C 787.923,585.702 789.589,586.869 790.5,589C 789.183,596.179 789.183,603.346 790.5,610.5C 789.872,612.258 788.872,613.758 787.5,615C 780.655,615.201 773.988,616.035 767.5,617.5C 754.909,617.529 743.242,614.362 732.5,608C 729.888,606.003 727.222,604.003 724.5,602C 722.842,599.325 721.009,596.825 719,594.5C 717.561,588.554 715.228,582.887 712,577.5C 711.044,568.026 710.544,558.526 710.5,549C 711.075,495.405 711.408,441.239 711.5,386.5C 711.5,385.167 711.5,383.833 711.5,382.5C 698.5,382.5 685.5,382.5 672.5,382.5C 671.504,382.586 670.671,382.252 670,381.5C 669.184,372.588 669.35,363.755 670.5,355C 676.897,353.872 683.397,353.372 690,353.5C 696.078,353.51 702.078,353.843 708,354.5C 708.692,353.975 709.192,353.308 709.5,352.5C 708.842,339.877 708.509,327.21 708.5,314.5C 708.351,301.409 708.851,288.409 710,275.5C 719.333,274.833 728.667,274.167 738,273.5C 738.667,274.167 739.333,274.833 740,275.5C 740.167,301.506 740.667,327.506 741.5,353.5C 758.991,353.368 776.657,353.535 794.5,354C 795.65,363.089 795.817,372.255 795,381.5C 794.617,382.056 794.117,382.389 793.5,382.5 Z"/></g>
<g><path style="opacity:1" fill="#5d9ce1" d="M 1997.5,309.5 C 2001.46,309.008 2005.12,309.675 2008.5,311.5C 2011.8,310.76 2014.8,311.593 2017.5,314C 2027.83,322.371 2030.33,333.204 2025,346.5C 2014.58,362.548 2000.42,367.048 1982.5,360C 1966.59,345.647 1966.59,331.313 1982.5,317C 1987.25,313.694 1992.25,311.194 1997.5,309.5 Z"/></g>
<g><path style="opacity:1" fill="#9fc6e7" d="M 184.5,317.5 C 184.068,318.71 183.401,319.71 182.5,320.5C 182.285,318.821 182.952,317.821 184.5,317.5 Z"/></g>
<g><path style="opacity:1" fill="#afd0ef" d="M 437.5,319.5 C 439.048,319.821 439.715,320.821 439.5,322.5C 438.599,321.71 437.932,320.71 437.5,319.5 Z"/></g>
<g><path style="opacity:1" fill="#bed6ef" d="M 179.5,326.5 C 179.068,327.71 178.401,328.71 177.5,329.5C 177.285,327.821 177.952,326.821 179.5,326.5 Z"/></g>
<g><path style="opacity:1" fill="#bed9f3" d="M 1614.5,242.5 C 1560,243.499 1505.34,243.832 1450.5,243.5C 1450.5,292.833 1450.5,342.167 1450.5,391.5C 1449.5,342.003 1449.17,292.336 1449.5,242.5C 1504.5,242.5 1559.5,242.5 1614.5,242.5 Z"/></g>
<g><path style="opacity:1" fill="#5b9ce1" d="M 1987.5,393.5 C 1987.29,395.179 1987.95,396.179 1989.5,396.5C 2007.91,426.994 2014.74,460.327 2010,496.5C 2001.87,541.608 1978.04,576.108 1938.5,600C 1880.74,628.557 1826.07,623.557 1774.5,585C 1748.9,563.475 1732.57,536.475 1725.5,504C 1725.64,502.774 1725.98,501.607 1726.5,500.5C 1725.47,499.3 1724.64,497.966 1724,496.5C 1723.33,479.833 1723.33,463.167 1724,446.5C 1724.47,445.069 1725.3,443.903 1726.5,443C 1725.41,440.936 1725.24,438.769 1726,436.5C 1728.93,428.368 1731.6,420.368 1734,412.5C 1737.14,406.794 1739.98,401.46 1742.5,396.5C 1744.05,396.179 1744.71,395.179 1744.5,393.5C 1757.49,373.348 1774.49,357.514 1795.5,346C 1799.2,344.545 1802.7,342.712 1806,340.5C 1807.36,341.258 1808.53,340.758 1809.5,339C 1818.19,336.316 1826.86,333.65 1835.5,331C 1838.1,330.231 1840.6,330.398 1843,331.5C 1844.17,330.107 1845.67,329.273 1847.5,329C 1900.8,324.727 1944.97,342.56 1980,382.5C 1982.51,386.195 1985.01,389.862 1987.5,393.5 Z M 1929.5,562.5 C 1928.29,562.932 1927.29,563.599 1926.5,564.5C 1925.26,564.81 1925.26,565.31 1926.5,566C 1925.55,566.617 1924.72,566.451 1924,565.5C 1920.1,568.398 1915.93,570.898 1911.5,573C 1902.4,576.593 1893.07,579.427 1883.5,581.5C 1873,581.417 1862.5,581.417 1852,581.5C 1809.21,572.998 1780.55,548.664 1766,508.5C 1765.67,505.833 1765.33,503.167 1765,500.5C 1762.27,499.063 1761.77,497.063 1763.5,494.5C 1754.19,438.295 1774.85,397.129 1825.5,371C 1863.61,358.59 1898.94,363.756 1931.5,386.5C 1958.37,409.103 1972.37,438.103 1973.5,473.5C 1973.33,477.167 1973.17,480.833 1973,484.5C 1971.71,487.818 1970.88,491.318 1970.5,495C 1967.18,523.04 1953.51,545.54 1929.5,562.5 Z"/></g>
<g><path style="opacity:1" fill="#5c9ce1" d="M 1286.5,364.5 C 1286.82,366.048 1287.82,366.715 1289.5,366.5C 1307.93,376.044 1322.93,390.044 1334.5,408.5C 1334.29,410.179 1334.95,411.179 1336.5,411.5C 1337.34,411.842 1337.67,412.508 1337.5,413.5C 1337.29,415.179 1337.95,416.179 1339.5,416.5C 1346.94,430.559 1352.11,445.559 1355,461.5C 1361.53,534.738 1331.37,584.904 1264.5,612C 1226.93,623.579 1190.27,621.079 1154.5,604.5C 1154.18,602.952 1153.18,602.285 1151.5,602.5C 1129.64,590.8 1112.14,574.467 1099,553.5C 1098.27,551.101 1097.1,548.935 1095.5,547C 1091.87,539.168 1088.71,530.668 1086,521.5C 1084.13,509.483 1082.63,497.483 1081.5,485.5C 1083.3,429.595 1108.63,388.429 1157.5,362C 1167.48,357.257 1177.82,353.59 1188.5,351C 1190.77,350.242 1192.94,350.409 1195,351.5C 1196.17,350.107 1197.67,349.273 1199.5,349C 1212.83,348.333 1226.17,348.333 1239.5,349C 1241.78,349.233 1243.78,350.066 1245.5,351.5C 1246.61,350.978 1247.77,350.645 1249,350.5C 1262.2,353.508 1274.7,358.175 1286.5,364.5 Z M 1309.5,536.5 C 1308.6,537.29 1307.93,538.29 1307.5,539.5C 1301.9,548.818 1295.24,556.651 1287.5,563C 1273.5,573.541 1258.17,581.208 1241.5,586C 1239.47,586.498 1237.47,586.331 1235.5,585.5C 1229.54,586.303 1223.71,587.303 1218,588.5C 1194.52,587.2 1173.02,579.7 1153.5,566C 1145.16,558.51 1137.83,550.343 1131.5,541.5C 1131.01,540.005 1130.34,538.671 1129.5,537.5C 1118.96,517.298 1114.46,495.632 1116,472.5C 1125.97,414.184 1160.31,382.851 1219,378.5C 1259.14,379.823 1289.47,397.156 1310,430.5C 1312.54,436.927 1315.21,443.26 1318,449.5C 1320.06,461.027 1321.89,472.527 1323.5,484C 1321.85,491.666 1320.68,499.499 1320,507.5C 1319.23,512.297 1317.73,516.797 1315.5,521C 1315.96,521.414 1316.29,521.914 1316.5,522.5C 1314.17,527.149 1311.83,531.816 1309.5,536.5 Z"/></g>
<g><path style="opacity:1" fill="#5e9de1" d="M 574.5,355.5 C 574.811,366.914 574.477,378.248 573.5,389.5C 573.833,390.833 574.167,390.833 574.5,389.5C 575.492,389.672 576.158,389.338 576.5,388.5C 582.173,379.494 589.506,372.161 598.5,366.5C 600.179,366.715 601.179,366.048 601.5,364.5C 607.972,360.087 615.139,357.087 623,355.5C 624.107,355.585 625.107,355.919 626,356.5C 627.491,354.996 629.324,354.163 631.5,354C 639.167,353.333 646.833,353.333 654.5,354C 656.635,354.759 657.968,356.259 658.5,358.5C 657.699,366.118 657.199,373.784 657,381.5C 655.667,382.167 654.333,382.833 653,383.5C 631.235,381.75 611.402,387.584 593.5,401C 579.241,414.921 572.241,432.255 572.5,453C 573.484,505.523 573.651,558.357 573,611.5C 572.5,612 572,612.5 571.5,613C 562.167,613.667 552.833,613.667 543.5,613C 542.5,612 541.5,611 540.5,610C 541.327,525.818 541.327,441.818 540.5,358C 540.903,356.527 541.57,355.194 542.5,354C 552.833,353.333 563.167,353.333 573.5,354C 574.056,354.383 574.389,354.883 574.5,355.5 Z"/></g>
<g><path style="opacity:1" fill="#5c9ce1" d="M 2049.5,355.5 C 2060.25,355.997 2071.08,355.997 2082,355.5C 2083,356.167 2084,356.833 2085,357.5C 2106.27,421.99 2127.94,486.324 2150,550.5C 2151,554.833 2152,559.167 2153,563.5C 2154.67,560.167 2156.33,556.833 2158,553.5C 2180.44,486.428 2203.44,420.762 2227,356.5C 2230.55,356.715 2234.22,356.382 2238,355.5C 2244.42,356.313 2250.92,356.813 2257.5,357C 2281.57,425.181 2305.4,494.014 2329,563.5C 2329.41,563.957 2329.91,564.291 2330.5,564.5C 2354.12,496.19 2377.45,427.857 2400.5,359.5C 2401.08,357.998 2401.92,356.665 2403,355.5C 2413.24,356.491 2423.57,356.491 2434,355.5C 2436.17,357.997 2435.67,359.83 2432.5,361C 2433.02,361.561 2433.36,362.228 2433.5,363C 2404.67,445.138 2375.84,527.305 2347,609.5C 2336,610.833 2325,610.833 2314,609.5C 2290.09,541.869 2266.25,474.535 2242.5,407.5C 2217.75,475.103 2193.58,542.436 2170,609.5C 2159.24,610.653 2148.41,610.82 2137.5,610C 2135.61,608.921 2135.27,607.587 2136.5,606C 2135.67,605.167 2134.83,604.333 2134,603.5C 2108.56,528.32 2082.39,453.153 2055.5,378C 2055.64,377.228 2055.98,376.561 2056.5,376C 2055.58,375.626 2054.75,375.126 2054,374.5C 2052.94,369.651 2051.27,364.984 2049,360.5C 2048.36,358.735 2048.53,357.068 2049.5,355.5 Z"/></g>
<g><path style="opacity:1" fill="#5f9ee2" d="M 2017.5,363.5 C 2031.1,362.955 2039.77,369.122 2043.5,382C 2040.57,395.59 2032.24,402.59 2018.5,403C 2006.98,397.453 2002.14,388.287 2004,375.5C 2007.68,370.436 2012.18,366.436 2017.5,363.5 Z"/></g>
<g><path style="opacity:1" fill="#9dc2df" d="M 601.5,364.5 C 601.179,366.048 600.179,366.715 598.5,366.5C 599.29,365.599 600.29,364.932 601.5,364.5 Z"/></g>
<g><path style="opacity:1" fill="#c3dbf0" d="M 1286.5,364.5 C 1287.71,364.932 1288.71,365.599 1289.5,366.5C 1287.82,366.715 1286.82,366.048 1286.5,364.5 Z"/></g>
<g><path style="opacity:1" fill="#b1cfef" d="M 574.5,355.5 C 575.167,366.5 575.833,377.5 576.5,388.5C 576.158,389.338 575.492,389.672 574.5,389.5C 574.167,389.5 573.833,389.5 573.5,389.5C 574.477,378.248 574.811,366.914 574.5,355.5 Z"/></g>
<g><path style="opacity:1" fill="#cee2f3" d="M 672.5,382.5 C 685.5,382.5 698.5,382.5 711.5,382.5C 711.5,383.833 711.5,385.167 711.5,386.5C 710.596,385.791 710.263,384.791 710.5,383.5C 697.656,383.829 684.989,383.495 672.5,382.5 Z"/></g>
<g><path style="opacity:1" fill="#cee2f5" d="M 793.5,382.5 C 776.008,383.497 758.341,383.83 740.5,383.5C 740.5,384.5 740.5,385.5 740.5,386.5C 739.566,385.432 739.232,384.099 739.5,382.5C 757.5,382.5 775.5,382.5 793.5,382.5 Z"/></g>
<g><path style="opacity:1" fill="#a7caee" d="M 1744.5,393.5 C 1744.71,395.179 1744.05,396.179 1742.5,396.5C 1742.93,395.29 1743.6,394.29 1744.5,393.5 Z"/></g>
<g><path style="opacity:1" fill="#a3c4e3" d="M 1987.5,393.5 C 1988.4,394.29 1989.07,395.29 1989.5,396.5C 1987.95,396.179 1987.29,395.179 1987.5,393.5 Z"/></g>
<g><path style="opacity:1" fill="#aecdf2" d="M 1334.5,408.5 C 1335.4,409.29 1336.07,410.29 1336.5,411.5C 1334.95,411.179 1334.29,410.179 1334.5,408.5 Z"/></g>
<g><path style="opacity:1" fill="#9fc5e7" d="M 1337.5,413.5 C 1338.4,414.29 1339.07,415.29 1339.5,416.5C 1337.95,416.179 1337.29,415.179 1337.5,413.5 Z"/></g>
<g><path style="opacity:1" fill="#b2d1ea" d="M 474.5,501.5 C 474.011,502.995 473.345,504.329 472.5,505.5C 472.157,503.517 472.824,502.183 474.5,501.5 Z"/></g>
<g><path style="opacity:1" fill="#a8caec" d="M 1309.5,536.5 C 1309.71,538.179 1309.05,539.179 1307.5,539.5C 1307.93,538.29 1308.6,537.29 1309.5,536.5 Z"/></g>
<g><path style="opacity:1" fill="#a5cdf1" d="M 1129.5,537.5 C 1130.34,538.671 1131.01,540.005 1131.5,541.5C 1129.82,540.817 1129.16,539.483 1129.5,537.5 Z"/></g>
<g><path style="opacity:1" fill="#aac9e8" d="M 389.5,557.5 C 389.179,559.048 388.179,559.715 386.5,559.5C 387.29,558.599 388.29,557.932 389.5,557.5 Z"/></g>
<g><path style="opacity:1" fill="#9bc1e0" d="M 386.5,559.5 C 386.179,561.048 385.179,561.715 383.5,561.5C 384.29,560.599 385.29,559.932 386.5,559.5 Z"/></g>
<g><path style="opacity:1" fill="#a7c9e8" d="M 1929.5,562.5 C 1929.18,564.048 1928.18,564.715 1926.5,564.5C 1927.29,563.599 1928.29,562.932 1929.5,562.5 Z"/></g>
<g><path style="opacity:1" fill="#aaceec" d="M 1151.5,602.5 C 1153.18,602.285 1154.18,602.952 1154.5,604.5C 1153.29,604.068 1152.29,603.401 1151.5,602.5 Z"/></g>
</svg>
